# xmcd
#
# Track frame offsets: 
#        150
#        12375
#        30211
#        40287
#        65103
#        80108
#        92474
#        106633
#        128153
#        137241
#        141105
#        164018
#        179868
#        202823
#        217074
#
# Disc length: 3291 seconds
#
# Revision: 0
# Processed by: cddbd v1.4PL0 Copyright (c) Steve Scherf et al.
# Submitted via: ExactAudioCopy v0.95a2
#
DISCID=d90cd90f
DTITLE=Various Artist - Blues Giants Vol.2
DYEAR=1900
DGENRE=blues
TTITLE0=Lightnin' Hopkins - Talk Of The Town
TTITLE1=BB King and His Orchestra - Guess Who?
TTITLE2=John Lee Hooker - I'm Leaving Baby
TTITLE3=Big Joe Williams - Brand New Car
TTITLE4=Jimmy Reed - You're Something Else
TTITLE5=Big Joe Williams - Sugar Mama
TTITLE6=Memphis Slim - Slim's Blues
TTITLE7=John Mayall - A Big Man
TTITLE8=Memphis Slim - Steppin' Out
TTITLE9=Mississipi John Hurt - C.H.I.C.K.E.N. Blues
TTITLE10=Bo Diddley - Don't Know Where I've Been
TTITLE11=Howling Wolf - Ain't Superstitious
TTITLE12=Etta James - Stormy Monday
TTITLE13=Leadbelly - Boll Weevil Blues
TTITLE14=Big Joe Turner - How Long Blues
EXTD=
EXTT0=
EXTT1=
EXTT2=
EXTT3=
EXTT4=
EXTT5=
EXTT6=
EXTT7=
EXTT8=
EXTT9=
EXTT10=
EXTT11=
EXTT12=
EXTT13=
EXTT14=
PLAYORDER=
